<svg width="42" height="45" viewBox="0 0 42 45" fill="none" xmlns="http://www.w3.org/2000/svg">
<circle cx="21" cy="23" r="20" stroke="#37AEE2" stroke-width="2"/>
<path d="M24.5449 27.3125V29H15.9668V27.5498L20.1328 23.0059C20.5898 22.4902 20.9502 22.0449 21.2139 21.6699C21.4775 21.2949 21.6621 20.958 21.7676 20.6592C21.8789 20.3545 21.9346 20.0586 21.9346 19.7715C21.9346 19.3672 21.8584 19.0127 21.7061 18.708C21.5596 18.3975 21.3428 18.1543 21.0557 17.9785C20.7686 17.7969 20.4199 17.7061 20.0098 17.7061C19.5352 17.7061 19.1367 17.8086 18.8145 18.0137C18.4922 18.2188 18.249 18.5029 18.085 18.8662C17.9209 19.2236 17.8389 19.6338 17.8389 20.0967H15.7207C15.7207 19.3525 15.8906 18.6729 16.2305 18.0576C16.5703 17.4365 17.0625 16.9443 17.707 16.5811C18.3516 16.2119 19.1279 16.0273 20.0361 16.0273C20.8916 16.0273 21.6182 16.1709 22.2158 16.458C22.8135 16.7451 23.2676 17.1523 23.5781 17.6797C23.8945 18.207 24.0527 18.8311 24.0527 19.5518C24.0527 19.9502 23.9883 20.3457 23.8594 20.7383C23.7305 21.1309 23.5459 21.5234 23.3057 21.916C23.0713 22.3027 22.793 22.6924 22.4707 23.085C22.1484 23.4717 21.7939 23.8643 21.4072 24.2627L18.6387 27.3125H24.5449Z" fill="#37AEE2"/>
</svg>
