<svg width="42" height="45" viewBox="0 0 42 45" fill="none" xmlns="http://www.w3.org/2000/svg">
<circle cx="21" cy="23" r="20" stroke="#37AEE2" stroke-width="2"/>
<path d="M18.4541 21.6436H19.7197C20.2119 21.6436 20.6191 21.5586 20.9414 21.3887C21.2695 21.2188 21.5127 20.9844 21.6709 20.6855C21.8291 20.3867 21.9082 20.0439 21.9082 19.6572C21.9082 19.2529 21.835 18.9072 21.6885 18.6201C21.5479 18.3271 21.3311 18.1016 21.0381 17.9434C20.751 17.7852 20.3848 17.7061 19.9395 17.7061C19.5645 17.7061 19.2246 17.7822 18.9199 17.9346C18.6211 18.0811 18.3838 18.292 18.208 18.5674C18.0322 18.8369 17.9443 19.1592 17.9443 19.5342H15.8174C15.8174 18.8545 15.9961 18.251 16.3535 17.7236C16.7109 17.1963 17.1973 16.7832 17.8125 16.4844C18.4336 16.1797 19.1309 16.0273 19.9043 16.0273C20.7305 16.0273 21.4512 16.165 22.0664 16.4404C22.6875 16.71 23.1709 17.1143 23.5166 17.6533C23.8623 18.1924 24.0352 18.8604 24.0352 19.6572C24.0352 20.0205 23.9502 20.3896 23.7803 20.7646C23.6104 21.1396 23.3584 21.4824 23.0244 21.793C22.6904 22.0977 22.2744 22.3467 21.7764 22.54C21.2783 22.7275 20.7012 22.8213 20.0449 22.8213H18.4541V21.6436ZM18.4541 23.2959V22.1357H20.0449C20.7949 22.1357 21.4336 22.2236 21.9609 22.3994C22.4941 22.5752 22.9277 22.8184 23.2617 23.1289C23.5957 23.4336 23.8389 23.7822 23.9912 24.1748C24.1494 24.5674 24.2285 24.9834 24.2285 25.4229C24.2285 26.0205 24.1201 26.5537 23.9033 27.0225C23.6924 27.4854 23.3906 27.8779 22.998 28.2002C22.6055 28.5225 22.1455 28.7656 21.6182 28.9297C21.0967 29.0938 20.5283 29.1758 19.9131 29.1758C19.3623 29.1758 18.835 29.0996 18.3311 28.9473C17.8271 28.7949 17.376 28.5693 16.9775 28.2705C16.5791 27.9658 16.2627 27.5879 16.0283 27.1367C15.7998 26.6797 15.6855 26.1523 15.6855 25.5547H17.8037C17.8037 25.9355 17.8916 26.2725 18.0674 26.5654C18.249 26.8525 18.501 27.0781 18.8232 27.2422C19.1514 27.4062 19.5264 27.4883 19.9482 27.4883C20.3936 27.4883 20.7773 27.4092 21.0996 27.251C21.4219 27.0928 21.668 26.8584 21.8379 26.5479C22.0137 26.2373 22.1016 25.8623 22.1016 25.4229C22.1016 24.9248 22.0049 24.5205 21.8115 24.21C21.6182 23.8994 21.3428 23.6709 20.9854 23.5244C20.6279 23.3721 20.2061 23.2959 19.7197 23.2959H18.4541Z" fill="#37AEE2"/>
</svg>
