<svg width="42" height="45" viewBox="0 0 42 45" fill="none" xmlns="http://www.w3.org/2000/svg">
<circle cx="21" cy="23" r="20" stroke="#37AEE2" stroke-width="2"/>
<path d="M18.1904 23.0498L16.5029 22.6367L17.1973 16.2031H24.0967V17.9961H18.9551L18.6035 21.1338C18.8027 21.0166 19.0781 20.9023 19.4297 20.791C19.7812 20.6738 20.1826 20.6152 20.6338 20.6152C21.2373 20.6152 21.7764 20.7148 22.251 20.9141C22.7314 21.1074 23.1387 21.3916 23.4727 21.7666C23.8066 22.1357 24.0615 22.5869 24.2373 23.1201C24.4131 23.6475 24.501 24.2422 24.501 24.9043C24.501 25.4961 24.4131 26.0498 24.2373 26.5654C24.0674 27.0811 23.8096 27.5352 23.4639 27.9277C23.1182 28.3203 22.6816 28.6279 22.1543 28.8506C21.6328 29.0674 21.0146 29.1758 20.2998 29.1758C19.7666 29.1758 19.2539 29.0996 18.7617 28.9473C18.2754 28.7891 17.8389 28.5576 17.4521 28.2529C17.0654 27.9424 16.7549 27.5615 16.5205 27.1104C16.2861 26.6533 16.1514 26.1289 16.1162 25.5371H18.1904C18.2432 25.9531 18.3574 26.3076 18.5332 26.6006C18.7148 26.8877 18.9551 27.1074 19.2539 27.2598C19.5527 27.4121 19.8984 27.4883 20.291 27.4883C20.6484 27.4883 20.9561 27.4268 21.2139 27.3037C21.4717 27.1748 21.6855 26.9932 21.8555 26.7588C22.0312 26.5186 22.1602 26.2373 22.2422 25.915C22.3301 25.5928 22.374 25.2354 22.374 24.8428C22.374 24.4678 22.3242 24.125 22.2246 23.8145C22.1309 23.5039 21.9873 23.2344 21.7939 23.0059C21.6064 22.7773 21.3691 22.6016 21.082 22.4785C20.7949 22.3496 20.4639 22.2852 20.0889 22.2852C19.585 22.2852 19.1982 22.3584 18.9287 22.5049C18.665 22.6514 18.4189 22.833 18.1904 23.0498Z" fill="#37AEE2"/>
</svg>
