<svg width="42" height="45" viewBox="0 0 42 45" fill="none" xmlns="http://www.w3.org/2000/svg">
<circle cx="21" cy="23" r="20" stroke="#37AEE2" stroke-width="2"/>
<path d="M22.3652 16.124H22.6289V17.8555H22.4795C21.7236 17.8555 21.0703 17.9727 20.5195 18.207C19.9746 18.4414 19.5264 18.7637 19.1748 19.1738C18.8232 19.584 18.5596 20.0645 18.3838 20.6152C18.2139 21.1602 18.1289 21.7402 18.1289 22.3555V24.3682C18.1289 24.8779 18.1846 25.3291 18.2959 25.7217C18.4072 26.1084 18.5625 26.4336 18.7617 26.6973C18.9668 26.9551 19.2012 27.1514 19.4648 27.2861C19.7285 27.4209 20.0127 27.4883 20.3174 27.4883C20.6338 27.4883 20.9209 27.4238 21.1787 27.2949C21.4365 27.1602 21.6562 26.9756 21.8379 26.7412C22.0195 26.5068 22.1572 26.2285 22.251 25.9062C22.3447 25.584 22.3916 25.2324 22.3916 24.8516C22.3916 24.4883 22.3447 24.1484 22.251 23.832C22.1631 23.5098 22.0312 23.2285 21.8555 22.9883C21.6797 22.7422 21.46 22.5518 21.1963 22.417C20.9385 22.2764 20.6396 22.2061 20.2998 22.2061C19.8779 22.2061 19.4941 22.3057 19.1484 22.5049C18.8086 22.7041 18.5332 22.9648 18.3223 23.2871C18.1172 23.6035 18.0059 23.9404 17.9883 24.2979L17.1797 24.0342C17.2266 23.4893 17.3467 23 17.54 22.5664C17.7393 22.1328 18 21.7637 18.3223 21.459C18.6445 21.1543 19.0166 20.9229 19.4385 20.7646C19.8662 20.6006 20.335 20.5186 20.8447 20.5186C21.4658 20.5186 22.0049 20.6357 22.4619 20.8701C22.9189 21.1045 23.2969 21.4238 23.5957 21.8281C23.9004 22.2266 24.126 22.6836 24.2725 23.1992C24.4248 23.709 24.501 24.2422 24.501 24.7988C24.501 25.4141 24.4072 25.9883 24.2197 26.5215C24.0322 27.0488 23.7568 27.5117 23.3936 27.9102C23.0361 28.3086 22.5996 28.6191 22.084 28.8418C21.5742 29.0645 20.9941 29.1758 20.3438 29.1758C19.6582 29.1758 19.0459 29.0439 18.5068 28.7803C17.9736 28.5166 17.5195 28.1533 17.1445 27.6904C16.7754 27.2275 16.4941 26.6943 16.3008 26.0908C16.1074 25.4873 16.0107 24.8486 16.0107 24.1748V23.2959C16.0107 22.3232 16.1338 21.4062 16.3799 20.5449C16.626 19.6777 17.0039 18.9131 17.5137 18.251C18.0293 17.5889 18.6885 17.0703 19.4912 16.6953C20.2939 16.3145 21.252 16.124 22.3652 16.124Z" fill="#37AEE2"/>
</svg>
